<svg viewBox="0 0 1080 1080" fill="none" xmlns="http://www.w3.org/2000/svg">      <defs>  <filter id="filter" x="-20%" y="-20%" width="140%" height="140%" filterUnits="objectBoundingBox" primitiveUnits="userSpaceOnUse" color-interpolation-filters="linearRGB">    <feMorphology operator="dilate" radius="20 20" in="SourceAlpha" result="morphology"/>    <feFlood flood-color="#ffffff" flood-opacity="1" result="flood"/>    <feComposite in="flood" in2="morphology" operator="in" result="composite"/>    <feMerge result="merge">          <feMergeNode in="composite" result="mergeNode"/>      <feMergeNode in="SourceGraphic" result="mergeNode1"/>      </feMerge>  </filter></defs>      <g id="notion-avatar" filter="url(#filter)">        <g id="notion-avatar-face" fill="#ffffff">      <!--?xml version="1.0" encoding="UTF-8"?-->    <!-- Generator: Sketch 63.1 (92452) - https://sketch.com -->    <title>Face/ 13</title>    <desc>Created with Sketch.</desc>    <g id="Face/-13" stroke="none" stroke-width="1" fill-rule="evenodd" stroke-linecap="round" stroke-linejoin="round">        <path d="M532,379 C664.54834,379 772,486.45166 772,619 C772,642.160109 793.234546,666.244677 787.453024,688.979248 C773.583554,743.517917 772,919 608,919 C448.628533,919 373.476049,816.010833 320.189513,718.584987 C317.498129,718.859681 314.765451,719 312,719 C267.81722,719 232,683.18278 232,639 C232,599.134956 261.158843,566.080325 299.312086,560.00055 C325.599297,455.979213 419.809919,379 532,379 Z M295.858895,624.545187 L304.141105,655.454813" id="Path" stroke="#000000" stroke-width="24"/>    </g>    </g><g id="notion-avatar-nose">      <!--?xml version="1.0" encoding="UTF-8"?-->    <title>Nose/ 10</title>    <g id="Nose/-10" stroke="none" stroke-width="1" fill="none" fill-rule="evenodd" stroke-linecap="round" stroke-linejoin="round">        <path d="M631,694.380659 C660.333333,687.46022 678,677.333333 684,664 C693,644 637.033407,606.392531 660.161467,579" id="Path" stroke="#000000" stroke-width="16"/>    </g>    </g><g id="notion-avatar-mouth">      <!--?xml version="1.0" encoding="UTF-8"?-->    <title>Mouth/ 9</title>    <g id="Mouth/-9" stroke="none" stroke-width="1" fill="none" fill-rule="evenodd" stroke-linecap="round" stroke-linejoin="round">        <path d="M532,760 C569.387146,756.771376 597.387146,753.438043 616,750 C634.612854,746.561957 658.946187,740.228624 689,731 L667,780 C644.19345,787.762145 627.19345,792.095479 616,793 C604.80655,793.904521 588.80655,792.237855 568,788 L532,760 Z" id="Path" stroke="#000000" stroke-width="16"/>    </g>    </g><g id="notion-avatar-eyes">      <!--?xml version="1.0" encoding="UTF-8"?-->    <title>Eyes/ 1</title>    <g id="Eyes/-1" stroke="none" stroke-width="1" fill="none" fill-rule="evenodd">        <g id="Group" transform="translate(546.000000, 509.000000)">            <path d="M24,7 C37.254834,7 48,17.745166 48,31 C48,44.254834 37.254834,55 24,55 C10.745166,55 0,44.254834 0,31 C0,17.745166 10.745166,7 24,7 Z M162,7 C175.254834,7 186,17.745166 186,31 C186,44.254834 175.254834,55 162,55 C148.745166,55 138,44.254834 138,31 C138,17.745166 148.745166,7 162,7 Z" id="Combined-Shape" fill="#000000"/>            <g id="Path" stroke="#000000" stroke-linecap="round" stroke-linejoin="round" stroke-width="4">                <path d="M0,7 C8,2.33333333 16,0 24,0 C32,0 40,2.33333333 48,7"/>                <path d="M138,7 C146,2.33333333 154,0 162,0 C170,0 178,2.33333333 186,7"/>            </g>        </g>    </g>    </g><g id="notion-avatar-eyebrows">      <!--?xml version="1.0" encoding="UTF-8"?-->    <title>Eyebrows/ 6</title>    <g id="Eyebrows/-6" stroke="none" stroke-width="1" fill="none" fill-rule="evenodd" stroke-linecap="round" stroke-linejoin="round">        <path d="M620,495.140162 C589.850248,491.823271 565.234864,491.823271 546.153846,495.140162 C527.072829,498.457053 511.688213,505.410333 500,516 C517.257672,497.488903 532.642287,487.058984 546.153846,484.710243 C559.665405,482.361502 584.280789,485.838142 620,495.140162 Z M658,495.140162 C693.719211,485.838142 718.334595,482.361502 731.846154,484.710243 C745.357713,487.058984 760.742328,497.488903 778,516 C766.311787,505.410333 750.927171,498.457053 731.846154,495.140162 C712.765136,491.823271 688.149752,491.823271 658,495.140162 Z" id="Combined-Shape" stroke="#000000" stroke-width="8" fill="#000000"/>    </g>    </g><g id="notion-avatar-glasses">      <!--?xml version="1.0" encoding="UTF-8"?-->    <title>Glasses/ 3</title>    <g id="Glasses/-3" stroke="none" stroke-width="1" fill="none" fill-rule="evenodd" stroke-linecap="round" stroke-linejoin="round">        <g id="Group" transform="translate(293.000000, 488.000000)" stroke="#000000" stroke-width="8">            <path d="M197.493245,10.4280671 C174.636102,27.3582996 188.604356,103.544346 244.477372,103.544346 C300.350388,103.544346 337.149222,42.6997481 325.747213,20.1024857 C314.345204,-2.49477675 220.350388,-6.50216547 197.493245,10.4280671 Z" id="Path"/>            <path d="M376.540864,10.4280671 C353.683721,27.3582996 367.651975,103.544346 423.524991,103.544346 C479.398007,103.544346 516.196841,42.6997481 504.794832,20.1024857 C493.392823,-2.49477675 399.398007,-6.50216547 376.540864,10.4280671 Z" id="Path" transform="translate(436.458153, 51.772173) scale(-1, 1) translate(-436.458153, -51.772173) "/>            <line x1="301.285714" y1="5.44186047" x2="392.714286" y2="5.44186047" id="Path"/>            <line x1="326.68254" y1="21.1627907" x2="367.31746" y2="21.1627907" id="Path"/>            <line x1="186.554557" y1="30.8015819" x2="1.25992802" y2="69.9860126" id="Path" transform="translate(94.259928, 50.646655) rotate(1.361411) translate(-94.259928, -50.646655) "/>        </g>    </g>    </g><g id="notion-avatar-hair">      <!--?xml version="1.0" encoding="UTF-8"?-->    <title>Hairstyle/ 11</title>    <g id="Hairstyle/-11" stroke="none" stroke-width="1" fill="none" fill-rule="evenodd" stroke-linecap="round" stroke-linejoin="round">        <path d="M287.145773,564.824988 L328.116663,564.824988 L366,655 C368,609 370.666667,578.666667 374,564 C377.333333,549.333333 386,536 400,524 C404.686858,511.205454 408.020191,498.538788 410,486 C411.979809,473.461212 412.646475,460.794546 412,448 C431.277968,442.027683 448.944635,435.027683 465,427 C481.055365,418.972317 496.055365,409.638984 510,399 C541.018923,414.567133 564.018923,423.900467 579,427 C598.333333,431 625.666667,431 661,427 C677,435 690.333333,444.666667 701,456 C711.666667,467.333333 719.333333,477 724,485 C739.337022,483.068501 749.003689,474.068501 753,458 C758.994467,433.897248 749.308457,421.45399 753,385 C755.461029,360.69734 761.794362,334.364006 772,306 C756.671455,311.760083 745.671455,315.093417 739,316 C713.953321,319.403591 695.432317,316 684,316 C636.89228,316 645,282 615,272 C595,265.333333 574.900668,265.39119 554.702003,272.17357 C537.058392,259.349997 518.824391,250.958807 500,247 C481.175609,243.041193 457.508942,242.041193 429,244 C432.618992,252.559514 429.952325,263.892847 421,278 C407.571512,299.160729 404,300 392,311 C380,322 362,318 347,335 C337,346.333333 333,359.666667 335,375 C327.529566,375.74088 320.196232,377.74088 313,381 C305.803768,384.25912 299.470434,389.592453 294,397 C316.094259,401.247038 325.477218,404.098045 322.148877,405.553022 C298.10323,416.064523 271.638366,440.518688 265,458 C256.983334,479.110894 264.365258,514.719224 287.145773,564.824988 Z" id="Path" stroke="#000000" stroke-width="12" fill="#000000"/>    </g>    </g><g id="notion-avatar-accessories">      <g id="Accessories/ 14"><g id="Group"><path id="Path" d="M287.695 658.293C276.76 647.358 276.76 629.63 287.695 618.695C298.63 607.76 316.358 607.76 327.293 618.695C337.267 628.669 338.143 644.297 329.921 655.264L362.083 687.426C366.925 692.268 366.925 700.119 362.083 704.962C357.24 709.804 349.389 709.804 344.547 704.962L306.04 666.456C299.371 666.111 292.792 663.389 287.695 658.293Z" fill="white" stroke="black" stroke-width="8" stroke-linecap="round" stroke-linejoin="round"/><rect id="Rectangle" width="8" height="16" rx="4" transform="matrix(-0.707107 0.707107 0.707107 0.707107 295.615 623.221)" fill="black"/></g></g>    </g><g id="notion-avatar-details">      <!--?xml version="1.0" encoding="UTF-8"?-->    <title>Details/ 0</title>    <g id="Details/-0" stroke="none" stroke-width="1" fill="none" fill-rule="evenodd"/>    </g><g id="notion-avatar-beard">      <!--?xml version="1.0" encoding="UTF-8"?-->    <title>Beard/ 0</title>    <g id="Beard/-0" stroke="none" stroke-width="1" fill="none" fill-rule="evenodd"/>    </g>      </g>      </svg>